<svg xmlns="http://www.w3.org/2000/svg" viewBox="0 0 16 16" shape-rendering="crispEdges">
  <rect width="16" height="16" fill="#0A0D13"/>
  <g fill="#E9EDF3">
    <rect x="1" y="4" width="1" height="1"/>
    <rect x="4" y="4" width="1" height="1"/>
    <rect x="7" y="4" width="1" height="1"/>
    <rect x="12" y="4" width="3" height="1"/>
    <rect x="1" y="5" width="1" height="1"/>
    <rect x="4" y="5" width="1" height="1"/>
    <rect x="7" y="5" width="1" height="1"/>
    <rect x="12" y="5" width="1" height="1"/>
    <rect x="1" y="6" width="1" height="1"/>
    <rect x="4" y="6" width="1" height="1"/>
    <rect x="7" y="6" width="1" height="1"/>
    <rect x="12" y="6" width="1" height="1"/>
    <rect x="1" y="7" width="1" height="1"/>
    <rect x="3" y="7" width="1" height="1"/>
    <rect x="5" y="7" width="1" height="1"/>
    <rect x="7" y="7" width="1" height="1"/>
    <rect x="12" y="7" width="3" height="1"/>
    <rect x="1" y="8" width="1" height="1"/>
    <rect x="3" y="8" width="1" height="1"/>
    <rect x="5" y="8" width="1" height="1"/>
    <rect x="7" y="8" width="1" height="1"/>
    <rect x="12" y="8" width="1" height="1"/>
    <rect x="2" y="9" width="1" height="1"/>
    <rect x="4" y="9" width="1" height="1"/>
    <rect x="6" y="9" width="1" height="1"/>
    <rect x="12" y="9" width="1" height="1"/>
    <rect x="2" y="10" width="1" height="1"/>
    <rect x="4" y="10" width="1" height="1"/>
    <rect x="6" y="10" width="1" height="1"/>
    <rect x="12" y="10" width="1" height="1"/>
    <rect x="3" y="11" width="1" height="1"/>
    <rect x="5" y="11" width="1" height="1"/>
    <rect x="12" y="11" width="3" height="1"/>
  </g>
  <g fill="#46E4D3">
    <rect x="9" y="10" width="2" height="1"/>
    <rect x="9" y="11" width="2" height="1"/>
  </g>
</svg>
